<svg width="38" height="38" fill="none" xmlns="http://www.w3.org/2000/svg"><path d="M24.878 3.311H13.109a9.793 9.793 0 00-9.798 9.798v11.769a9.793 9.793 0 009.798 9.798h11.769a9.793 9.793 0 009.798-9.798V13.109c0-5.401-4.383-9.798-9.798-9.798zm6.862 21.567c0 3.78-3.082 6.863-6.862 6.863H13.109c-3.78 0-6.863-3.083-6.863-6.863V13.109c0-3.78 3.083-6.863 6.863-6.863h11.769c3.78 0 6.862 3.083 6.862 6.863v11.769z" fill="#A76F29"/><path d="M18.993 11.152a7.843 7.843 0 00-7.841 7.841 7.843 7.843 0 007.841 7.841 7.843 7.843 0 007.842-7.84 7.843 7.843 0 00-7.842-7.842zm0 12.747a4.908 4.908 0 01-4.905-4.906 4.908 4.908 0 014.905-4.906 4.908 4.908 0 014.906 4.906 4.908 4.908 0 01-4.906 4.906zm8.431-12.291a1.045 1.045 0 100-2.091 1.045 1.045 0 000 2.09z" fill="#A76F29"/></svg>