<svg width="19" height="26" fill="none" xmlns="http://www.w3.org/2000/svg"><path d="M18.981 22.191L17.667 5.855c-.038-.514-.438-.924-.914-.924h-2.436C14.136 2.182 12.023 0 9.5 0S4.855 2.182 4.674 4.931H2.237c-.476 0-.876.4-.914.924L0 22.212v.095C0 24.342 1.675 26 3.741 26h11.518C17.325 26 19 24.342 19 22.307c-.01-.032-.01-.074-.019-.116zM9.491 2.025c1.513 0 2.789 1.28 2.97 2.906H6.52c.18-1.636 1.456-2.906 2.97-2.906zm5.758 21.94H3.731c-1.028 0-1.875-.724-1.894-1.616L3.075 6.967h1.58v1.815c0 .556.41 1.018.923 1.018.505 0 .923-.451.923-1.018V6.967h5.988v1.815c0 .556.41 1.018.923 1.018.514 0 .924-.451.924-1.018V6.967h1.58l1.237 15.382c-.028.892-.875 1.616-1.903 1.616z" fill="#262626"/></svg>