<svg width="19" height="34" fill="none" xmlns="http://www.w3.org/2000/svg"><path d="M5.8 23.536V.592h3.696v22.944a33.335 33.335 0 001.728-1.488c.704-.64 1.312-1.472 1.824-2.496.736-1.472 1.168-2.752 1.296-3.84.128-1.088.192-2 .192-2.736V.592h3.744v12.384c0 1.888-.256 3.76-.768 5.616-.512 1.824-1.504 3.456-2.976 4.896.928.256 1.648.608 2.16 1.056.512.448.88.928 1.104 1.44.256.48.4.976.432 1.488.032.48.048.912.048 1.296V34h-3.744v-5.328c0-.48-.064-.88-.192-1.2-.128-.32-.576-.48-1.344-.48H9.496V34H5.8v-7.008H2.632l-2.16-3.456H5.8z" fill="#A86D06"/></svg>