<svg width="38" height="21" fill="none" xmlns="http://www.w3.org/2000/svg"><path d="M32.45 13.286c1.234 1.175 2.547 2.284 3.647 3.576.496.575.951 1.175 1.313 1.84.51.953.054 1.997-.83 2.05h-5.43c-1.407.117-2.52-.431-3.458-1.37-.75-.745-1.447-1.54-2.171-2.31-.295-.314-.603-.614-.979-.85-.737-.469-1.38-.325-1.809.432-.429.77-.536 1.618-.576 2.466-.054 1.24-.443 1.58-1.73 1.632-2.747.13-5.348-.274-7.774-1.632-2.131-1.187-3.793-2.871-5.227-4.763C4.624 10.65 2.466 6.59.536 2.402.107 1.462.416.953 1.488.94 3.258.9 5.026.914 6.809.94c.724.013 1.193.418 1.475 1.07.965 2.297 2.13 4.477 3.605 6.513.389.535.791 1.083 1.367 1.461.63.418 1.113.288 1.408-.404.188-.43.268-.9.308-1.37.134-1.593.161-3.185-.094-4.777-.147-.992-.723-1.632-1.742-1.827-.523-.092-.442-.288-.188-.575.442-.496.845-.809 1.662-.809h6.14c.964.183 1.179.614 1.313 1.553v6.643c-.014.366.187 1.449.871 1.697.536.17.898-.248 1.22-.587 1.474-1.514 2.52-3.315 3.458-5.169.416-.822.777-1.67 1.126-2.518.255-.627.657-.94 1.394-.927h5.911c.174 0 .349 0 .523.026.992.17 1.273.587.965 1.527-.483 1.488-1.434 2.728-2.346 3.968-.992 1.33-2.037 2.61-3.016 3.941-.911 1.24-.83 1.853.282 2.91z" fill="#7A7A7A"/></svg>