<svg width="20" height="22" fill="none" xmlns="http://www.w3.org/2000/svg"><path d="M16.7 0H3.331C1.492 0 0 1.576 0 3.52v16.712c0 .756.845 1.155 1.382.662L7.5 15.239l6.117 5.655c.537.494 1.382.094 1.382-.662v-9.68h4.168c.457 0 .835-.389.835-.883V3.521C19.981 1.587 18.52.03 16.7 0zm-3.382 18.298L8.036 13.42a.788.788 0 00-1.094 0l-5.281 4.877V3.52c0-.978.746-1.766 1.67-1.766h10.434c-.01.021-.02.042-.04.063 0 .01-.01.01-.01.021-.02.042-.04.084-.06.137 0 .01-.01.02-.01.031-.02.042-.04.084-.049.127 0 .01-.01.01-.01.02a.751.751 0 00-.05.137c0 .01-.01.021-.01.032-.01.042-.03.084-.04.126 0 .01 0 .01-.01.02-.01.053-.03.095-.04.148 0 .01-.01.021-.01.031-.01.043-.019.095-.029.137v.01l-.03.158c0 .01 0 .021-.01.042-.01.053-.01.095-.02.147v.011c-.01.052-.01.105-.01.158v6.36l-.01 8.628zm4.992-9.501h-3.322V3.52c0-.967.746-1.755 1.661-1.755s1.661.788 1.661 1.755v5.276z" fill="#7A7A7A"/></svg>