<svg width="17" height="19" fill="none" xmlns="http://www.w3.org/2000/svg"><path d="M16.372 13.425l-2.05-2.284c-.401-.464-.887-.713-1.403-.713-.509 0-.995.24-1.41.704l-1.088 1.211c-.061-.034-.115-.069-.17-.094-.122-.07-.246-.138-.354-.215-1.086-.773-2.08-1.778-3.029-3.075-.424-.601-.717-1.108-.932-1.598.277-.283.54-.584.778-.859.1-.12.208-.232.308-.352.424-.472.648-1.022.648-1.589s-.224-1.117-.648-1.589L6.005 1.838c-.116-.129-.224-.249-.332-.378l-.015-.017A15.818 15.818 0 004.957.67C4.556.232 4.07 0 3.562 0c-.501 0-.987.232-1.41.679L.878 2.096a3.41 3.41 0 00-.863 2.061c-.07.962.085 1.967.493 3.178.61 1.847 1.526 3.557 2.89 5.378 1.65 2.198 3.639 3.934 5.92 5.17.879.464 2.058 1.014 3.36 1.108h.008c.078 0 .155.009.24.009.932 0 1.68-.36 2.289-1.1l.038-.042c.17-.232.37-.447.586-.67l.046-.052c.123-.129.309-.335.494-.541.832-.97.824-2.242-.008-3.17zM5.735 5.42l-.07.086c-.292.326-.562.635-.862.928l-.031.034c-.44.49-.285.988-.24 1.15 0 .01.008.027.008.035l.008.017c.278.748.663 1.435 1.241 2.25 1.04 1.435 2.143 2.552 3.36 3.41.14.095.27.173.401.25l.078.043c.123.069.246.137.354.215l.03.017c.009.008.024.017.032.017a.89.89 0 00.454.129c.255 0 .494-.12.702-.344l1.28-1.425c.146-.164.3-.25.439-.25.177 0 .331.155.408.24l2.074 2.303c.3.343.3.653-.016 1.022a13 13 0 01-.447.498l-.038.043c-.232.25-.47.507-.694.799-.347.412-.732.593-1.264.593-.054 0-.116 0-.162-.009-1.08-.077-2.089-.55-2.852-.953-2.096-1.134-3.938-2.74-5.457-4.768-1.256-1.683-2.104-3.255-2.66-4.93-.33-.996-.47-1.804-.415-2.525.038-.447.185-.8.462-1.108L3.13 1.76c.146-.155.3-.24.44-.24.177 0 .323.128.423.24l.008.008c.193.198.378.413.578.636l.092.103c.062.069.116.138.178.206.061.069.115.138.177.206l1.017 1.134c.162.18.24.352.24.498 0 .155-.085.318-.24.499l-.161.18c-.039.069-.093.129-.147.189z" fill="#7A7A7A"/></svg>