<svg width="19" height="25" fill="none" xmlns="http://www.w3.org/2000/svg"><path d="M5.84 10.229c-.713 0-1.287.574-1.287 1.287 0 .712.574 1.286 1.286 1.286.713 0 1.287-.574 1.287-1.286 0-.713-.574-1.287-1.287-1.287zm6.828 0c-.712 0-1.286.574-1.286 1.287 0 .712.574 1.286 1.286 1.286.713 0 1.287-.574 1.287-1.286a1.29 1.29 0 00-1.287-1.287z" fill="#7A7A7A"/><path d="M18.497 11.516c0-1.07-.692-1.98-1.652-2.296l.089-1.099a3.58 3.58 0 00-1.742-3.384c.04-.663-.168-1.336-.614-1.95-.722-1-1.96-1.653-3.157-1.653h-6.75L4.305.392a.717.717 0 00-.534-.386.733.733 0 00-.624.218l-.544.554a2.887 2.887 0 00-.535.752 3.045 3.045 0 00-.178 2.336c.169.504.456.95.832 1.296a3.546 3.546 0 00-1.158 2.95l.089 1.108A2.427 2.427 0 000 11.516c0 1.088.722 2.009 1.702 2.315v3.702a6.03 6.03 0 00.752 2.919l.208.376a7.6 7.6 0 006.651 3.91 7.62 7.62 0 006.948-4.523 5.921 5.921 0 00.514-2.445v-3.939a2.426 2.426 0 001.723-2.315zm-15.35 4.75l.95 1.504a1.265 1.265 0 001.08.594c.237 0 .474-.07.682-.198.238-.149.416-.376.515-.623l.405-1.06a.408.408 0 01.406-.267h4.117c.178 0 .337.11.396.277l.406 1.05a1.285 1.285 0 002.286.227l.97-1.514v1.524c0 .643-.128 1.277-.396 1.86a6.187 6.187 0 01-5.641 3.672 6.177 6.177 0 01-5.394-3.177l-.208-.376a4.577 4.577 0 01-.574-2.226v-1.267zM15.51 7.992l-.01.07-1.831-2.088h.693c.03 0 .059 0 .089-.01a2.138 2.138 0 011.059 2.028zm-.149 5.582l-2.019 3.167-.297-.772a1.866 1.866 0 00-1.732-1.197h-1.81l.484-3.89-1.425-.178-.505 4.067h-.851a1.827 1.827 0 00-1.752 1.198l-.297.782-1.999-3.167V10.08L6.75 5.984h5.037l3.593 4.097v3.493h-.02zM4.8 4.549a1.69 1.69 0 01-.732-.169 1.65 1.65 0 01-.594-2.415l.109.208a.703.703 0 00.643.396h7.205c.732 0 1.534.426 1.99 1.05.128.177.326.514.346.92H4.8v.01zm-.643 1.355c.208.04.425.07.633.07h.04L2.999 8.062l-.01-.08a2.135 2.135 0 011.168-2.078zM1.712 12.19a.983.983 0 01-.267-.683c0-.268.099-.505.267-.683v1.366zm15.083-1.356a.982.982 0 01.267.683.983.983 0 01-.267.682v-1.365z" fill="#7A7A7A"/><path d="M9.254 19.047a6.02 6.02 0 001.93-.317l.138-.05-.455-1.355-.139.05a4.727 4.727 0 01-2.959 0l-.138-.05-.456 1.366.139.049a6.117 6.117 0 001.94.307z" fill="#7A7A7A"/></svg>