<svg width="16" height="21" fill="none" xmlns="http://www.w3.org/2000/svg"><path d="M8 0C3.592 0 0 3.596 0 8.01c0 2.844.856 3.976 4.957 9.39.71.938 1.51 1.997 2.43 3.217a.765.765 0 001.227 0c.928-1.245 1.751-2.327 2.413-3.208C15.144 11.978 16 10.846 16 8c0-4.404-3.584-8-8-8zm0 1.536c3.568 0 6.474 2.91 6.474 6.481 0 2.328-.71 3.266-4.658 8.486-.54.712-1.138 1.512-1.808 2.393-.67-.89-1.275-1.69-1.808-2.4l-.008-.017c-3.94-5.196-4.65-6.134-4.65-8.47A6.462 6.462 0 018 1.536z" fill="#7A7A7A"/><path d="M8 12.398a4.395 4.395 0 004.383-4.389A4.395 4.395 0 008 3.621a4.395 4.395 0 00-4.383 4.388A4.395 4.395 0 008 12.398zm0-7.242a2.856 2.856 0 012.85 2.853A2.861 2.861 0 018 10.862 2.856 2.856 0 015.15 8.01 2.856 2.856 0 018 5.156z" fill="#7A7A7A"/></svg>