<svg width="22" height="34" fill="none" xmlns="http://www.w3.org/2000/svg"><path d="M9.317 34v-7.008H5.813c-.768 0-1.216.16-1.344.48-.128.32-.192.72-.192 1.2V34H.533v-5.232c0-.384.016-.816.048-1.296.032-.512.16-1.008.384-1.488.256-.512.64-.992 1.152-1.44.512-.448 1.232-.8 2.16-1.056-1.472-1.44-2.464-3.072-2.976-4.896a21.029 21.029 0 01-.768-5.616V.592h3.744v12.384c0 .736.064 1.648.192 2.736.128 1.088.56 2.368 1.296 3.84.512 1.024 1.12 1.856 1.824 2.496.704.64 1.28 1.136 1.728 1.488V.592h3.696v22.944a33.336 33.336 0 001.728-1.488c.704-.64 1.312-1.472 1.824-2.496.736-1.472 1.168-2.752 1.296-3.84.128-1.088.192-2 .192-2.736V.592h3.744v12.384c0 1.888-.256 3.76-.768 5.616-.512 1.824-1.504 3.456-2.976 4.896.928.256 1.648.608 2.16 1.056.512.448.88.928 1.104 1.44.256.48.4.976.432 1.488.032.48.048.912.048 1.296V34h-3.744v-5.328c0-.48-.064-.88-.192-1.2-.128-.32-.576-.48-1.344-.48h-3.504V34H9.317z" fill="#A86D06"/></svg>