<svg width="275" height="39" fill="none" xmlns="http://www.w3.org/2000/svg"><path d="M38.8.483l-10 38.214H23l-3.8-12.642-3.7 12.642H9.7L0 .483h6.6l6.2 24.993 3.6-12.255h5.8L26 25.283l6-24.8h6.8zM69 38.697h-6.8l-2.7-8.685h-11l-3 8.589h-6.8l3-8.589H40l-3.8-6.369h7.6L51.2.773H57l12 37.924zm-11.5-15.15l-3.6-10.712-3.6 10.712h7.2zm47.1 15.15H97l-8.8-14.572-8.6 14.572H72l12.5-20.94c-1.2-2.124-3.2-5.405-6-9.94C75.7 3.28 74.3.676 74.1.483h7.6l6.8 11.097c.6-.772 1.6-2.509 3.2-5.21 1.6-2.703 2.8-4.633 3.6-5.984h7.6l-10.6 17.37 12.3 20.94zm34 0h-6.8L129 30.11h-10.9l-3 8.588h-6.8l3-8.588h-1.8l-3.8-6.369h7.6L120.7.87h5.8l12.1 37.828zm-11.5-15.15l-3.6-10.712-3.6 10.712h7.2zm50 2.412c0 3.474-1.4 6.369-4.2 8.781-2.8 2.509-6.2 3.86-9.9 3.86v-6.369c2.2 0 4-.579 5.6-1.93 1.6-1.351 2.2-2.702 2.2-4.439 0-.965-.4-1.737-1-2.702-.8-.965-1.6-1.737-2.6-2.702l-3-2.895c-1-.965-1.8-2.123-2.6-3.474s-1-2.702-1-4.246c0-2.702 1.2-5.018 3.4-6.948C166.2.965 169 0 172 0v6.369c-1.4 0-2.6.386-3.4.965-1 .772-1.4 1.544-1.4 2.509 0 .772.4 1.737 1 2.509.8.772 1.6 1.737 2.6 2.509 1 .772 2 1.737 3 2.702 1 .965 1.8 2.123 2.6 3.474.4 1.737.7 3.281.7 4.922zM207 38.504h-6.6V14.86h-9.5v23.643h-6.6V14.86h-2.6l-3.8-6.369h6.4V.097h6.6v8.492h9.5V.097h6.6v38.407zm43.9-19.011c0 5.211-2 9.747-5.8 13.414s-8.6 5.597-13.9 5.597c-5.3 0-10.1-1.93-13.9-5.597-3.8-3.86-5.8-8.3-5.8-13.414 0-5.114 2-9.553 5.8-13.413 4-3.86 8.6-5.597 13.9-5.597 5.3 0 9.9 1.93 13.9 5.597 3.8 3.763 5.8 8.202 5.8 13.413zm-10.3 8.975c2.6-2.51 4-5.597 4-8.975 0-3.474-1.4-6.562-4-8.974-2.6-2.413-5.8-3.86-9.3-3.86-3.5 0-6.8 1.35-9.3 3.86-2.6 2.509-4 5.597-4 8.974 0 3.378 1.4 6.562 4 8.975 2.6 2.509 5.8 3.86 9.3 3.86 3.5 0 6.7-1.351 9.3-3.86zM275 15.247c0 3.667-1.2 6.948-3.8 9.747-2.6 2.895-5.8 4.439-9.3 5.018v8.685h-6.6V.483h4.2c4.2 0 7.8 1.544 10.9 4.439 3 2.895 4.6 6.272 4.6 10.325zm-6.4 0c0-2.123-.6-3.86-2-5.404-1.2-1.544-3-2.509-5-3.088V23.45c2-.386 3.6-1.544 4.8-3.088 1.6-1.255 2.2-3.185 2.2-5.115z" fill="#262626"/></svg>