<svg width="142" height="102" fill="none" xmlns="http://www.w3.org/2000/svg"><path d="M109.1 53.144c-.4-.475-.9-.95-1.3-1.426-.6-.76-1.2-1.521-1.7-2.282-1-1.426-2.1-2.662-3.7-3.517-.6-.285-1.2-.476-1.9-.476-.4 0-.7.19-.8.57-.1.19-.1.476-.1.666v4.278c0 .666.2 1.236 1 1.521.1.096.2.286.3.38-.1.096-.3.19-.4.19H80.7c-.4 0-.7.096-1.1 0-.1 0-.3-.19-.3-.284 0-.095.1-.286.2-.38 0-.096.2-.096.2-.096.8-.095 1-.38 1.1-1.14v-4.565c0-.475-.2-.665-.7-.76-.2 0-.3-.095-.5-.095H75c-.6 0-.9.285-.9.855v4.373c0 .38.1.666.3.951.1.19.4.285.6.475.1.095.3.095.4.095.1.096.1.19.1.286 0 .095-.1.095-.2.19h-6.7c-.2 0-.3-.095-.5-.19.1-.095.2-.286.4-.38.8-.286 1.2-.856 1.2-1.712V39.264c0-.666-.3-1.141-.9-1.426-.1-.095-.1-.19-.2-.38.1-.096.2-.19.3-.19h6.4c.1 0 .2.094.4.19-.1.095-.2.285-.3.285-1.1.285-1.2 1.045-1.2 1.901v4.183c0 .666.1.76.8.76h5.1c.4 0 .6-.19.6-.57V39.17c0-.856-.4-1.331-1.3-1.521h-.2c-.1-.095-.3-.19-.4-.286.2-.095.3-.095.5-.19H105c.6 0 1.2.095 1.8.286 2.4.57 3.4 2.281 2.8 4.563-.5 1.616-1.6 2.662-3.3 3.042-.2 0-.3.095-.5.19.1.19.2.38.4.476 2.3 1.616 4.5 3.422 6.4 5.514.5.95 1.3.855 2.2.76 3.1-.475 6.1-.665 9.2-.57 2.9.095 5.8.285 8.7.855 1.3.286 2.6.666 3.7 1.331.4.285.9.57 1.2.951 1 1.046.9 2.377-.3 3.328-.9.76-1.9 1.14-3 1.425-2.3.57-4.7.666-7 .476-2.6-.285-5.2-.666-7.7-1.331-3.5-.95-6.6-2.567-9.4-4.754-.2-.19-.5-.19-.7-.095-3 .57-6 1.141-9 1.807-8.3 1.901-16.4 4.373-24.3 7.32-5.3 1.997-10.5 3.898-15.9 5.61a97.582 97.582 0 01-16.2 4.562c-4.5.951-9 1.522-13.7 1.426-5.4-.095-10.6-.95-15.5-3.232-4-1.806-7.3-4.468-9.3-8.27-1.2-2.093-1.8-4.374-2.1-6.75-.4-3.138-.1-6.18 1.1-9.127 1.5-3.803 3.9-6.94 7.6-9.127 2.2-1.331 4.7-1.997 7.3-1.806.4 0 .9.095 1.3.19.1 0 .3.19.2.285 0 .095-.2.19-.3.285h-.3c-1.7-.475-3.4-.095-5 .38-3.5 1.046-5.9 3.328-7.4 6.465-1.2 2.092-1.7 4.373-2 6.75-.6 5.8 1.5 10.648 5.6 14.83 2.5 2.568 5.7 4.089 9.2 5.04 2.7.76 5.4 1.14 8.2 1.235 3.6.19 7.1-.095 10.6-.57 11.9-1.521 23.3-4.658 34.6-8.556 4.6-1.617 9.3-2.852 13.9-4.183 5.9-1.712 12-3.138 18-4.373 1.1-.286 2-.38 3-.666 0 .095 0 0 0 0zm5.1.095l.1.19c.1.095.2.19.2.285 2 1.902 4.3 3.233 6.9 4.184 2.4.855 4.9 1.33 7.4 1.425 2 0 4.1 0 6.1-.57.8-.19 1.5-.475 2.1-1.046.8-.76.8-1.52 0-2.281-.3-.286-.6-.57-1-.666-1.1-.38-2.2-.855-3.3-1.14-3.3-.761-6.7-1.142-10.2-.951-2.7.19-5.5.38-8.3.57zm-18.8-8.176V39.55c0-.856-.5-1.426-1.3-1.426s-1.3.57-1.3 1.426v10.933c0 .95.7 1.521 1.4 1.426.8 0 1.3-.57 1.3-1.521-.1-1.711-.1-3.518-.1-5.324zm-7.3 0V39.55c0-.19 0-.38-.1-.57-.2-.57-.8-.951-1.5-.856-.7.095-1.1.666-1.1 1.426v11.028c0 .19 0 .38.1.57.2.57.8.951 1.5.856.6-.095 1.1-.57 1.1-1.236.1-1.901 0-3.803 0-5.704zm11.6-2.852s.1 0 0 0v1.331c0 .665.3.95 1 .95h1.3c.6 0 1.1 0 1.7-.094 1.9-.476 2.6-2.282 2.2-4.088-.3-1.141-1.7-2.092-3.1-2.092h-1.9c-.8 0-1.1.19-1.1.95-.1.952-.1 1.997-.1 3.043z" fill="#A76F29"/><path d="M54.5 45.538v-5.704c0-.665-.2-1.236-.8-1.711-.1-.095-.2-.285-.2-.38.1-.095.3-.19.4-.19h10.6c2.8 0 4.5 1.901 4.6 4.183.2 2.757-1.7 4.373-4.2 4.468-1.8 0-3.5.095-5.3.19-.7 0-.8.19-.8.76 0 1.332 0 2.662.1 3.993 0 .57.1 1.236.7 1.712.2.095.1.285-.1.38H46.9c-.2-.095-.4-.19-.5-.19.2-.095.3-.285.5-.285 1.3-.286 1.5-.57 1-1.807-.5-1.14-.9-2.376-1.3-3.517-.3-.856-.4-.856-1-.856h-2.9c-.6 0-.8.095-1 .666-.5 1.236-.9 2.376-1.3 3.612-.1.19-.2.476-.2.666-.1.475 0 .76.4 1.046.1.095.2.19.2.285-.1.095-.2.19-.4.19h-4.3c-.1 0-.2-.095-.3-.19.1-.095.1-.285.3-.285.2-.096.4-.096.6-.096.7-.19 1.2-.57 1.5-1.14 2.2-5.134 4.4-10.363 6.6-15.497 0-.095.1-.19.1-.285.1-.095.2-.19.3-.19.1 0 .2.095.2.19 1.8 3.993 3.7 7.89 5.5 11.884.6 1.33 1.2 2.662 1.9 3.993.2.38.4.665.7 1.045.3.38.8.286 1-.095.1-.285.2-.57.2-.76-.1-2.187-.2-4.088-.2-6.085zm4.1-3.612v2.377c0 .475.2.76.7.76.7.095 1.3.095 2 .095.4 0 .9-.095 1.3-.19 1.8-.38 3-1.236 3-3.423 0-1.71-.9-2.662-2.6-2.662h-3.6c-.5 0-.8.19-.8.761v2.282zM44 45.348h1.1c.4 0 .5-.19.3-.475-.1-.285-.2-.475-.3-.76-.2-.476-.5-1.046-.7-1.522-.1-.19-.3-.285-.5-.38-.1 0-.3.19-.4.38-.2.476-.4.856-.6 1.331-.1.285-.3.57-.4.95-.1.286 0 .476.4.476H44zm-9.6-15.116v2.852c0 .095-.1.285-.2.38l-.3-.285c-1-1.71-2.3-3.042-4.4-3.612-.4-.095-1-.095-1.4 0-1.4.285-2 1.33-1.7 2.662.3 1.236 1.1 2.186 2.1 2.947 2.6 2.091 4.8 4.468 6.3 7.32.9 1.711 1.5 3.423 1.4 5.324 0 1.426-.4 2.757-1.1 3.993-1.3 2.187-3.5 2.852-6 2.757-1.4-.095-2.7-.38-4-.856-1-.38-2.5-.095-3 .856 0 .095-.1.19-.2.19-.1.095-.4.19-.4.095a.708.708 0 01-.2-.475c0-.57.1-1.236.1-1.806-.1-1.902-.3-3.898-.5-5.8v-.285c.1-.095.2-.285.2-.38l.3.285c.6 2.282 2.1 3.993 4.3 5.229 1 .475 1.9.855 3.1.95 1.4.096 2.5-.38 3.3-1.52.8-1.141.8-2.282.1-3.423-.4-.57-.8-1.236-1.3-1.711-2.7-2.757-5.1-5.8-7.3-8.842-1.4-2.091-1.4-4.278-.1-6.37 1.4-2.281 4.3-3.422 7.4-2.186.4.19.7.38 1.1.57.7.38 1.3.286 1.8-.285.1-.095.3-.095.4-.19 0 .095.1.285.1.38v1.331l.1-.095zM77.1 19.68c.1-.286.1-.38.2-.571-.4.285-.7.665-1.3.38.4-.285.7-.76 1.1-.95.9-.57 1.4-1.236 1.3-2.187-.1-.57-.1-1.14 0-1.711.1-.666-.2-1.236-.7-1.616-.8-.57-1.5-1.331-2.1-2.092-.5-.665-1.2-1.046-1.9-1.426-.3-.19-.6-.38-.8-.57-.1-.095-.2-.19-.4-.19-.3-.096-.5 0-.5.38 0 .19-.1.38-.2.665.1.19.1.666.5.95.2.096 0 .476-.4.761-.5-.665-.7-1.426-.8-2.281-.1-.38 0-.666.3-.95.2-.191.4-.476.6-.666.3-.38.6-.476 1.1-.095.2.19.4.38.5.57.5-.475 1-.856 1.4-1.236.1-.095.1-.095.1-.19.3-.57.6-1.046.8-1.616.1-.095.1-.285 0-.38 0-.096-.3-.096-.4-.096a34 34 0 00-1.4.286c-.2 0-.5-.095-.7-.286-.1-.19-.3-.57.1-.76.8-.476 1.6-.95 2.3-1.521.2-.286.2-.38.2-.476.1-.19.1-.38.2-.665.3.475.4.855.7 1.14.3.286.8.381 1.2.666-.1.095-.1.19-.2.19.4.476.8.951 1.2 1.521-.1 0-.1.096-.2.096-.1-.096-.3-.096-.4-.19l-.1.094c.1.19.3.38.5.57-.6.191-.1.381-.1.666-.1 0-.2 0-.3.095.1.095.1.19.2.38-.2 0-.3-.094-.4-.094v.095c.1.665.3 1.33.4 1.996.1.856.8 1.426 1.4 1.997.4.38.8.665 1.2 1.14.3.38.5.856.7 1.236.1.476.4.57.8.666.2 0 .4 0 .7.095 1 .19 1.5 1.046 1.2 2.091-.1.38-.3.666-.4 1.046-.3.57-.5 1.046-.8 1.616 0 .096-.1.19-.2.19v-.95c-.3.19-.5.285-.8.475.1-.19.1-.475.2-.57.2-.476.4-1.046.7-1.521.4-.856.2-1.617-.7-1.997-.1 0-.4.095-.5.19-.3.856-1 1.331-1.9 1.617-.5.19-.3.57-.4.855 0 .285 0 .475.1.76.1.381 0 .571-.4.666-.4.19-.7.476-1 .76-.2.286-.6.381-.6.856-.2 0-.6.095-.9.095zM73.2 8.27c-.4-.665-.6-.665-1-.285.3.095.6.19 1 .285zm-9.1 11.314c-.2 0-.5.095-.7 0-.2-.095-.3-.285-.4-.38l-.1.095c0 .095.1.19.1.285-.5.19-.5.095-.8-.285-.4-.476-.9-.856-1.4-1.236-.3-.19-.5-.38-.4-.76.1-.381.1-.856 0-1.237 0-.095-.2-.285-.3-.285-.9-.285-1.5-.76-1.9-1.616-.1-.285-.3-.38-.6-.19-.9.665-1 1.046-.5 2.091.3.57.5 1.236.8 1.807 0 0-.1 0-.1.095-.2-.095-.5-.285-.7-.38v.95H57c0-.095-.1-.19-.1-.285-.3-.57-.5-1.046-.8-1.616-.2-.476-.4-1.046-.5-1.521-.1-.856.6-1.521 1.5-1.617h.5c.4-.095.7-.19.7-.57.1-.76.6-1.33 1.1-1.806.2-.19.4-.285.6-.476.9-.76 1.6-1.52 1.6-2.757 0-.475.2-.95.3-1.52-.1 0-.2 0-.4.094.1-.095.1-.285.2-.38h-.3c-.1-.19.5-.57-.1-.665.2-.19.3-.38.5-.57l-.1-.096c-.1.095-.3.095-.4.19 0 0-.1 0-.1-.095.4-.475.8-.95 1.2-1.521-.1-.095-.2-.095-.3-.19.5-.19.9-.38 1.2-.666.3-.285.5-.665.7-1.14.1.095.2.285.2.38 0 .38.2.475.5.665.7.38 1.4.951 2 1.331.3.095.1.476 0 .666-.1.19-.5.285-.7.19l-1.5-.285c-.3-.095-.4.19-.3.38.5.76.6 1.711 1.4 2.377.3.285.6.57 1 1.046.1-.19.1-.38.3-.476.5-.475.9-.76 1.4.095.1.095.1.285.3.38 1 .761.5 1.617.2 2.377-.1.285-.2.666-.4 1.046-.6-.38-.6-.57-.2-1.046.2-.19.2-.57.2-.855 0-.095-.1-.286-.1-.476 0-.475-.3-.57-.7-.38-.5.285-1 .76-1.6 1.046-1 .475-1.4 1.33-2 1.996-.4.476-.9.856-1.4 1.236-.5.38-.8.856-.8 1.521.1.666 0 1.331 0 1.997 0 .855.4 1.52 1.2 1.996.4.285.8.666 1.2.95l-.1.096zM67 8.27c.4-.095.7-.19 1-.286-.4-.38-.6-.38-1 .286z" fill="#A76F29"/><path d="M59.7 20.82a6.73 6.73 0 01-.4-1.33c-.1-.38 0-.761.4-.856.3-.095.6-.095.9 0 .4.19.5.57.4.95-.1.38-.3.761-.4 1.141.1.095.1.19.2.285.5.476.9.666 1.7.476 2.6-.76 4.9-.095 6.8 1.711l.2.19c.1.095.1.19.3.285.2-.19.4-.475.5-.57 2.1-1.901 4.5-2.377 7.3-1.521.2.095.4 0 .5-.095.3-.19.6-.476.9-.76-.2-.381-.4-.761-.4-1.046 0-.286 0-.57.2-.856.2-.38.6-.38 1-.285.3.095.6.57.5.95-.1.38-.3.76-.4 1.236.3.19.6.57 1 .856.1.095.2.095.3 0 1-.38 2.1-.476 3.1-.095.1 0 .3 0 .4-.095.3-.095.6-.285.9-.285.6-.096 1.1.285 1.1.855 0 .57-.4.95-1 .95-.3 0-.6-.19-1-.284-.1 0-.3-.095-.5-.095-1 .38-2 .38-3-.096-.1-.095-.3 0-.5 0-.3.286-.6.57-.9.761.1.38.3.76.4 1.14.1.571-.2 1.047-.8 1.142-.5 0-1-.38-.9-.951 0-.285.2-.665.3-.95.1-.19.1-.286 0-.476l-.1-.095c-.5-.475-.9-.76-1.7-.475-1.4.475-2.9.38-4.4-.096-.3-.095-.5-.095-.7.096-.5.38-1 .76-1.6 1.235-.3.19-.3.38-.1.666.5.856.8 1.806.5 2.852-.1.285-.2.475-.4.666-.4.57-1 .57-1.4 0-.5-.761-.6-1.522-.4-2.377.1-.38.3-.856.5-1.236.2-.285.1-.38-.1-.57-.3-.19-.5-.476-.8-.666-.6-.475-1.2-.76-2.1-.475-1.4.475-2.9.38-4.2-.095-.3-.096-.5-.096-.7.095-.1.095-.3.19-.4.285-.5.475-.5.38-.2 1.046.1.285.2.665.2 1.045 0 .476-.5.666-.9.666-.4-.095-.8-.38-.7-.856 0-.475.2-.95.3-1.52-.2-.191-.6-.476-.9-.761-.1-.096-.2-.096-.3 0-1 .475-2.1.475-3.1.095-.1 0-.3 0-.4.095-.4.095-.7.285-1.1.285-.6.095-.9-.38-1-.856 0-.57.4-.95 1-.855.3 0 .7.19 1 .285.2 0 .4.095.5 0 1-.38 2-.285 3 .095.1.095.3.095.4 0 .6-.38.9-.665 1.2-.856zm10.2 3.803c-.9 1.046-.8 2.662 0 3.232.8-.855.8-2.091 0-3.232zm-8.7-2.567c-.4-.285-.7-.57-1.1-.855-.3.285-.6.665-.9.95l.9.856c.4-.38.7-.666 1.1-.95zm12.1 0c.9.476 3.3.38 3.8 0a5.242 5.242 0 00-3.8 0zm-10.7 0c.7.476 3.2.476 3.7 0-1.1-.475-2.6-.475-3.7 0zm17 .856c.3-.285.7-.57 1-.856-.4-.285-.7-.57-1-.855-.3.285-.7.57-1 .855.3.285.7.57 1 .856zm-21.8-.856c-.7-.285-1.4-.285-2 0 .6.285 1.3.285 2 0zm24.1 0c.7.285 1.5.285 2.1 0-.6-.285-1.6-.285-2.1 0zm-27.3.095v-.19c-.3-.095-.5-.19-.8-.19-.1 0-.3.19-.3.285 0 .095.2.285.3.285.3 0 .5-.095.8-.19zm30.5-.19v.19c.2.095.5.19.7.285.2.096.4-.095.4-.285 0-.285-.2-.38-.5-.38-.1 0-.3.095-.6.19zm-5.4 1.997h-.2c-.1.285-.2.475-.2.76 0 .095.2.19.3.285.1-.095.2-.285.2-.38 0-.19-.1-.38-.1-.665zm-19.5 0H60c-.1.19-.2.475-.2.665 0 .095.2.285.3.38.1-.095.3-.285.3-.38 0-.19-.1-.475-.2-.665zm-.1-3.803h.2c.1-.285.1-.57.1-.856 0-.095-.2-.19-.3-.285-.1.095-.2.19-.2.285 0 .38.1.57.2.856zm19.4 0h.2c.1-.19.2-.476.2-.666 0-.095-.1-.285-.2-.38-.1.095-.3.19-.3.285-.1.286 0 .476.1.76z" fill="#A76F29"/><path d="M74.8 11.599c0 2.186.2 4.373-.8 6.464-.8 1.617-1.8 2.948-3.6 3.803-.3.095-.5.095-.8 0-2-.95-3.1-2.662-3.8-4.658-.3-.951-.5-1.997-.5-2.947v-2.662h9.5zm-.2.19h-9v3.042h9v-3.042zm-6.4 5.324c1-.095 1.1.57 1.3 1.236h.8c.1 0 .2-.096.3-.19.1-.286.2-.571.4-.761.2-.19.6-.19.9-.285 0-.285-.2-.476-.5-.57-.6-.19-1 0-1.3.475-.5-.476-.8-.57-1.2-.476-.4-.095-.6.19-.7.57zm1.1 2.567h1.6c-.1-.761-.1-.951-.6-.951-.9 0-.9 0-1 .95zm.1-1.236c0 .095 0 .095 0 0 .4.095.8.095 1.2.095v-.095h-1.2zm24 14.07c0 1.616-1.4 2.852-3.1 2.852-1.7 0-3.1-1.331-3-2.947 0-1.711 1.5-2.947 3.3-2.852 1.5.095 2.8 1.33 2.8 2.947zM69.8 93.929h2.4c.9 0 1.5.57 1.6 1.236.1.665-.3 1.33-1.1 1.71-.1 0-.2.096-.4.191.8.856 1.4 1.806 2.4 2.567 0-.19.1-.38.1-.57v-4.279c0-.285-.1-.57-.2-.855H76c-.1.38-.2.76-.2 1.046v3.802c0 .285.1.666.2 1.046-.7 0-1.5-.095-2.3-.095-.2 0-.4-.19-.5-.285-.7-.856-1.4-1.712-2.2-2.662.4-.095.6-.19.9-.285.6-.286.9-.761.7-1.331-.1-.476-.8-.76-1.4-.666-.1 0-.2.095-.4.095v4.183c0 .38.1.666.2 1.046h-1.5c.1-.38.2-.665.2-1.046V94.69c.3-.19.2-.475.1-.76zM34.3 82.52c-.7 1.617-1.3 3.233-2 4.944-.5-.19-.7-.57-.8-.95-.5-1.141-1.1-2.377-1.6-3.613-.1-.095-.1-.285-.2-.38-.1.855-.3 1.806-.4 2.661-.1.38-.1.76-.1 1.046 0 .38.1.666.1 1.046H28c.6-.95.5-2.092.7-3.137l.3-1.997c0-.285-.1-.57-.1-.856h1.5c.6 1.427 1.3 2.853 1.9 4.279.6-1.522 1.2-2.948 1.8-4.374h1.3c0 .476 0 .951.1 1.522.1 1.14.3 2.281.5 3.422.1.38.2.666.3 1.046h-1.5c0-.285.1-.57.1-.856a29.4 29.4 0 00-.6-3.803c.1.096.1 0 0 0zm49.2-1.236c2.1 0 3.6 1.521 3.4 3.423-.2 1.806-2.1 3.042-4.1 2.757-2.5-.38-3.7-2.852-2.3-4.754.7-.95 1.8-1.426 3-1.426zm-2.4 3.043c0 .665.2 1.236.6 1.806.6.666 1.4.95 2.4.76.9-.19 1.4-.76 1.6-1.52.1-.38.1-.856 0-1.237-.2-1.14-1.3-2.091-2.4-1.996-1.3-.095-2.2.856-2.2 2.187zm-39.5-2.852c1 0 2-.095 3.1 0 1.6.19 2.5 1.236 2.6 2.757 0 1.52-1 2.662-2.5 2.947-1.1.19-2.1.095-3.1.19.1-.475.2-.856.2-1.236v-3.898c-.1-.19-.2-.475-.3-.76zm1.2.665v4.278c0 .095.2.285.3.285 1.8.19 3.5-.76 2.9-3.042-.2-.76-.7-1.236-1.5-1.426-.5-.095-1-.095-1.7-.095zm30.7 5.229c.1-.38.2-.76.2-1.046V82.52c0-.285-.1-.665-.2-.95 1 0 2-.095 3.1 0 1.6.19 2.5 1.236 2.5 2.757 0 1.52-.9 2.662-2.5 2.947-.2 0-.3.095-.5.095h-2.6zm1.3-5.229v3.708c0 .95 0 .95 1 .855 1.4-.095 2.3-.95 2.4-2.186.1-1.331-.7-2.187-2-2.377-.5-.095-1 0-1.4 0zm13.6 0v4.373c0 .285.2.57.3.856h-1.5c.1-.38.2-.76.2-1.236v-3.708c0-.285-.1-.665-.2-.95.8 0 1.7-.095 2.6 0 .8.095 1.3.57 1.4 1.14.1.666-.2 1.236-.9 1.617-.2.095-.3.19-.6.285.9.95 1.6 2.091 2.8 2.757-.8.285-1.5.095-2-.475-.7-.856-1.3-1.617-2-2.472.4-.095.7-.19.9-.285.6-.286.9-.761.7-1.236-.1-.476-.6-.761-1.3-.761 0 0-.2 0-.4.095zM69.3 99.823h-1.6c0-.285.1-.475 0-.76-.2-.476-.3-1.141-.6-1.427-.4-.285-1-.095-1.6-.095h-.4c-.3 0-.4.095-.5.285-.1.38-.3.761-.4 1.141-.1.19 0 .476 0 .76h-1.3c.3-.474.5-.95.8-1.425.5-1.236 1-2.472 1.6-3.708.1-.285.2-.57-.1-.855h1.3c.1 0 .3.19.3.285.6 1.426 1.2 2.852 1.9 4.278.1.665.3 1.14.6 1.521zM65 96.876h1.8c-.3-.76-.6-1.426-.9-2.187-.3.856-.6 1.521-.9 2.187zm-17.1-9.507h-1.4c.2-.38.5-.856.7-1.236.6-1.236 1.1-2.472 1.6-3.803.1-.285.1-.57.1-.855h-.1c.4 0 1-.095 1.3.095.3.19.4.665.6 1.046.5 1.235 1 2.471 1.6 3.707.2.38.4.666.7 1.046h-1.7c.3-.19.2-.475.1-.76-.2-.476-.3-1.046-.6-1.331-.3-.19-1-.096-1.5-.096-.8 0-.8 0-1.1.666-.1.19-.2.475-.2.665-.2.286-.1.57-.1.856zm2.6-2.947c-.3-.76-.6-1.426-.9-2.187-.3.76-.6 1.426-.9 2.187h1.8zm47.9 3.042c.3-.19.5-.38.8-.475 1.6-.476 2.6-1.806 2.5-3.233 0-.665-.3-1.236-1-1.616-.5-.285-1.2-.19-1.6.19-.4.38-.5 1.141-.2 1.712.3.475.8.76 1.4.665.2 0 .5-.095.7-.19-.3.57-.8.856-1.5.76-.8-.094-1.4-.475-1.7-1.14-.6-1.331.5-2.852 2.1-2.948 1.9-.094 3.1 1.427 2.6 3.233-.5 1.711-1.8 2.472-3.5 2.947-.2.095-.5.095-.7.095.2.095.1 0 .1 0zm9-.856c.6.095 1.2.19 1.8.19.6 0 1.1-.19 1.4-.665.4-.665.1-1.426-.7-1.711-.5-.19-1.1-.19-1.6 0-.2 0-.4.095-.6.19.1-1.046.1-2.092.2-3.137h3.4v1.045c-.7-.475-1.5-.38-2.3-.38-.1 0-.2.19-.3.285v1.141c.2 0 .3 0 .5-.095 1.2-.19 2.3.38 2.6 1.331.4 1.14-.3 2.282-1.7 2.567-.6.095-1.3 0-2 0-.1 0-.2-.095-.3-.19-.2-.095-.3-.38-.4-.57zM76.7 98.777c.5.19 1 .38 1.6.57.5.096 1 0 1.4-.19.5-.285.6-.855.1-1.235-.3-.286-.7-.38-1-.57-.4-.191-.9-.381-1.3-.666-.5-.286-.8-.76-.7-1.426.1-.666.5-.951 1.1-1.236.8-.285 1.6-.285 2.4-.095.3.095.4.19.3.38v.57c-.5-.095-1.1-.285-1.6-.38-.2 0-.4 0-.5.095-.7.19-.8.856-.2 1.331.4.285.8.475 1.2.666.3.19.7.285 1 .57.8.57.9 1.426.2 2.187-.8.855-1.8.855-2.9.76-1-.285-1.1-.475-1.1-1.33zm-16.1-1.711c.1 0 .2-.095.3-.095.2-.095.4-.095.6-.285.5-.286.8-.856.6-1.426-.1-.476-.5-.76-1.2-.76s-.7 0-.7.665v3.612c0 .38.2.666.3 1.046h-1.7c.4-.38.4-.856.4-1.33v-3.518c0-.38-.1-.666-.2-1.046.9 0 1.9-.095 2.9 0 .9.095 1.4.665 1.4 1.426.1.665-.4 1.426-1.2 1.616-.4.19-.9.285-1.5.095zm-23.5-9.697c.1-.38.2-.665.2-1.046v-3.898c0-.38-.1-.665-.2-1.045h3.3v.95c-.7-.475-1.4-.38-2.1-.285v1.616h1.5v.76c-.5 0-1-.094-1.5-.094v2.091c1 .095 2 .285 3-.475-.2.475-.3.76-.4 1.14 0 .096-.2.191-.3.191-1.1.095-2.4.095-3.5.095zM65 81.475h3.3v.95c-.5-.38-1.1-.38-1.7-.285-.3 0-.4.095-.4.38v1.236h1.5v.76c-.5 0-1-.094-1.5-.094v2.091c1 .095 2 .285 3-.475-.2.475-.3.76-.4 1.14 0 .096-.2.096-.3.096H65c.1-.38.2-.76.2-1.141v-3.708c0-.19-.1-.57-.2-.95z" fill="#A76F29"/><path d="M104.1 86.608c1.6.19 1.9.19 3.2-.285-.2.38-.3.666-.5.95 0 .096-.2.191-.3.191h-4.2c.1-.19.2-.285.3-.38.8-1.046 1.6-2.187 2.4-3.233.3-.38.6-.855.2-1.33-.3-.38-.8-.476-1.5-.286-.3.095-.7.285-1 .38.1-.76.4-1.14 1.2-1.14.5 0 1.1 0 1.5.19.9.285 1.2 1.045.8 1.901-.4.76-1 1.426-1.5 2.187-.1.19-.3.475-.6.855zm13.3-46.393c0 1.616-1.3 2.852-3.1 2.756-1.7 0-2.9-1.235-2.9-2.852 0-1.616 1.4-2.852 3.1-2.852 1.6.095 2.9 1.426 2.9 2.947zm-3 2.281c1.4 0 2.4-1.046 2.4-2.377 0-1.236-1.1-2.281-2.4-2.281-1.4 0-2.4 1.045-2.4 2.281 0 1.331 1.1 2.377 2.4 2.377zM57.2 86.608c1.5.19 1.8.19 3-.38-.2.38-.3.76-.4 1.046 0 .095-.2.095-.3.095h-3.6c.4-.475.3-.95.3-1.426V82.52c0-.38-.1-.665-.2-1.045h1.4c-.1.38-.2.665-.2 1.045v4.088zm4.6 0c1.1.095 2.1.286 3-.38-.1.285-.3.666-.4.95 0 .096-.2.19-.3.19h-3.6c.4-.474.4-.95.3-1.425V82.52c0-.38-.1-.665-.2-1.045H62c-.1.38-.2.76-.2 1.236v3.897zm34.5.761c.1-.285.3-.665.3-.95v-3.803h-.9l1.8-1.427v5.134c0 .38.2.76.3 1.141-.4-.095-1-.095-1.5-.095zm-42.7.001c.1-.381.2-.666.2-1.047v-3.802c0-.286-.1-.666-.2-.951H55c-.1.38-.2.76-.2 1.14v3.708c0 .286.1.666.2.951h-1.4zm25.7-4.374c.2-.19.2-.285.3-.38.1-.096.1-.19.2-.38-.1 0-.1-.096-.2-.096-.3-.095-.5-.285-.4-.57.1-.19.3-.38.5-.38s.5.19.6.38c.2.38-.3 1.33-.7 1.52 0 0-.2-.094-.3-.094zM70.1 14.07c.4-.475.4-.95 0-1.52h1.6c.1 0 .2.284.4.38-.4.19-.8-.476-1.1.095.2-.095.3-.095.5-.095v.665c-.1-.095-.3-.095-.4-.19v.095c0 .095.1.38.1.38.2 0 .4 0 .5-.095.1-.095.2-.285.3-.38.1.57 0 .76-.5.76h-1.3c-.1 0-.1-.095-.1-.095zm-2.2 0h-1c0-.095 0-.19.1-.285-.5-.19-.6-.19-.5.285h-.7c.2-.475.7-.855.4-1.52.6-.19.8-.19 1.1.38.2.475.4.76.6 1.14zm6.5-.76c-.1.855-.2.95-.9.855-.3 0-.6 0-1-.095v-.095c.4-.38.5-.855 0-1.426h1.1c-.1.286-.2.57-.2.951 0 .095.1.285.2.38.1 0 .3 0 .4-.095.1-.19.2-.285.4-.475zm-5.2-.76h.6c-.2.475-.5.855-.7 1.33-.1.095-.2.19-.3.19-.1 0-.2-.095-.3-.19-.3-.38-.5-.855-.8-1.33h.8c.1.284.1.57.2.76h.2c.2-.19.2-.476.3-.76z" fill="#A76F29"/><path d="M114 41.736h-.8v-3.233c.7 0 1.3 0 1.9.095.4 0 .7.285.7.76.1.476-.1.666-.5.856.2.19.4.38.4.666.1.285 0 .475.1.855h-.5c-.3 0-.4-.094-.4-.38 0-.665-.2-.76-.9-.665v1.046zm0-1.522c.4-.095.6-.19.9-.38.1 0 .1-.38 0-.475-.2-.095-.5-.19-.8-.285-.1.38-.1.665-.1 1.14z" fill="#A76F29"/></svg>