<svg width="19" height="19" fill="none" xmlns="http://www.w3.org/2000/svg"><path d="M15.97 7.752c0-2.073-.829-4.015-2.344-5.477A8.07 8.07 0 007.981 0C5.844 0 3.843.805 2.336 2.275.83 3.737 0 5.686 0 7.752c0 2.074.83 4.016 2.336 5.478a8.07 8.07 0 005.645 2.274 8.087 8.087 0 004.649-1.454l.326-.232 4.505 4.37a.92.92 0 00.638.256.92.92 0 00.638-.255.86.86 0 000-1.238l-4.505-4.371.24-.317a7.533 7.533 0 001.498-4.51zm-3.62 4.24a6.242 6.242 0 01-4.369 1.756 6.242 6.242 0 01-4.37-1.756 5.876 5.876 0 01-1.81-4.24c0-1.601.647-3.11 1.81-4.24 1.165-1.137 2.72-1.756 4.37-1.756s3.205.627 4.37 1.756a5.857 5.857 0 011.81 4.24c.007 1.602-.639 3.11-1.81 4.24z" fill="#fff"/></svg>