<svg width="84" height="62" fill="none" xmlns="http://www.w3.org/2000/svg"><path d="M19.1.1H0v2.4h19.1V.1zM84 .1H64.9v2.4H84V.1z" fill="#000"/><path d="M20.7 42.7L4.8 1.3l-2.1.9 16.2 42.2.6 1.5c.1-.4 1.1-2.7 1.2-3.2zm4-14.9L14.9 2.2l1.5-.7.6-.2 9.8 25.6-2.1.9z" fill="#000"/><path d="M20.3 43.8l6.5-16.9-2.1-.9-6.4 16.8 2 1zm1-15.1L10.3.1l-2 .9 11.2 29.4.6 1.5c.1-.4 1.1-2.8 1.2-3.2zM42.2.1H23.1v2.4h19.1V.1z" fill="#000"/><path d="M43.3 42.7l-16-41.4-2.1.9 16.2 42.2.6 1.5c.2-.4 1.1-2.7 1.3-3.2zm4-14.9L37.5 2.2l1.5-.7.5-.2 9.8 25.6-2 .9z" fill="#000"/><path d="M42.9 43.8l6.4-16.9-2-.9-6.5 16.8 2.1 1zm1-15.1L32.9.1l-2.1.9L42 30.4l.6 1.5c.2-.4 1.1-2.8 1.3-3.2zM45.322 62h16.8v-2.4h-16.8V62z" fill="#000"/><path d="M46.7 51.9l3.2 8.4-1.5.7-.5.3-3.2-8.5 2-.9z" fill="#000"/><path d="M51.1 35.9l-6.4 16.9 2 .9 6.5-16.8-2.1-1z" fill="#000"/><path d="M49.4 42.6c-.4 1-.9 2-1.3 2.9L54.4 62l2.1-.9-7.1-18.5z" fill="#000"/><path d="M57.9 61.1L80.6 1.7l-2-.9-22.8 59.4 2.1.9z" fill="#000"/><path d="M50.7 37l7.4 19.2 2.1-.9-7.6-19.9-.6-1.6c-.2.4-1.1 2.7-1.3 3.2z" fill="#000"/><path d="M56.2 46.3L73.9.1 76 1 58 47.9l-.6 1.5c-.1-.3-1-2.7-1.2-3.1zm-1.9 9.8l2.5-6.5-1.5-2.3-3.1 7.9 2.1.9zM22.405 62h16.8v-2.4h-16.8V62z" fill="#000"/><path d="M24.2 51.9l3.2 8.4-1.5.7-.6.3-3.2-8.5 2.1-.9z" fill="#000"/><path d="M28.6 35.9l-6.5 16.9 2.1.9 6.4-16.8-2-1z" fill="#000"/><path d="M26.8 42.6c-.4 1-.9 2-1.3 2.9L31.8 62l2.1-.9-7.1-18.5z" fill="#000"/><path d="M35.4 61.1l2.2-5.9-2-.9-2.3 5.9 2.1.9z" fill="#000"/><path d="M28.2 37l7.4 19.2 2.1-.9-7.7-20-.6-1.5c-.1.4-1.1 2.7-1.2 3.2z" fill="#000"/><path d="M31.8 56.1l2.5-6.5-1.6-2.3-3 7.9 2.1.9zm26.9-29.2L69 .1l2.1.9-10.6 27.6-.6 1.5c-.1-.4-1-2.8-1.2-3.2z" fill="#000"/></svg>