<svg width="133" height="19" fill="none" xmlns="http://www.w3.org/2000/svg"><path d="M18.765.233L13.93 18.715h-2.805l-1.838-6.114-1.79 6.114H4.691L0 .233h3.192l2.999 12.088 1.74-5.927h2.806l1.838 5.834L15.476.233h3.29zM33.37 18.715h-3.288l-1.306-4.2h-5.32l-1.45 4.154h-3.29l1.452-4.154h-.823l-1.837-3.08h3.675L24.763.373h2.804l5.804 18.341zm-5.56-7.327l-1.742-5.18-1.741 5.18h3.482zm22.778 7.327h-3.675l-4.256-7.047-4.16 7.047h-3.675l6.045-10.128c-.58-1.026-1.547-2.613-2.902-4.807-1.354-2.193-2.03-3.453-2.128-3.547h3.676L42.802 5.6c.29-.373.774-1.213 1.547-2.52.774-1.307 1.355-2.24 1.742-2.893h3.675l-5.126 8.4 5.948 10.128zm16.444.001h-3.289l-1.354-4.154h-5.272l-1.45 4.154h-3.29l1.452-4.154h-.87l-1.839-3.08h3.676L58.375.42h2.805l5.852 18.295zm-5.562-7.327l-1.74-5.18-1.742 5.18h3.482zm24.182 1.166c0 1.68-.677 3.08-2.031 4.247-1.355 1.213-2.999 1.866-4.788 1.866v-3.08c1.064 0 1.934-.28 2.708-.933.774-.654 1.064-1.307 1.064-2.147 0-.467-.193-.84-.484-1.307-.386-.467-.773-.84-1.257-1.307l-1.45-1.4c-.485-.467-.871-1.027-1.258-1.68s-.484-1.307-.484-2.054c0-1.306.58-2.426 1.644-3.36C80.38.467 81.734 0 83.186 0v3.08c-.678 0-1.258.187-1.645.467-.483.373-.677.747-.677 1.213 0 .374.193.84.484 1.214.386.373.773.84 1.257 1.213.484.374.967.84 1.451 1.307.484.467.87 1.027 1.257 1.68.194.84.339 1.587.339 2.38zm14.461 6.066h-3.192V7.187h-4.595v11.434h-3.192V7.187h-1.257l-1.838-3.08h3.095V.047h3.192v4.106h4.595V.046h3.192v18.575zm21.231-9.193c0 2.52-.967 4.713-2.805 6.487-1.838 1.773-4.159 2.707-6.722 2.707-2.564 0-4.885-.934-6.723-2.707-1.838-1.867-2.805-4.014-2.805-6.487 0-2.474.967-4.62 2.805-6.488 1.935-1.867 4.159-2.707 6.723-2.707 2.563 0 4.788.934 6.722 2.707 1.838 1.82 2.805 3.967 2.805 6.488zm-4.981 4.34c1.257-1.213 1.934-2.707 1.934-4.34 0-1.68-.677-3.174-1.934-4.34-1.258-1.168-2.805-1.868-4.498-1.868a6.297 6.297 0 00-4.498 1.867c-1.257 1.214-1.934 2.707-1.934 4.34 0 1.634.677 3.174 1.934 4.341 1.258 1.213 2.805 1.867 4.498 1.867s3.24-.654 4.498-1.867zM133 7.374c0 1.774-.58 3.36-1.838 4.714-1.257 1.4-2.805 2.147-4.498 2.427v4.2h-3.192V.233h2.032c2.031 0 3.772.747 5.271 2.147C132.226 3.78 133 5.414 133 7.374zm-3.095 0c0-1.027-.29-1.867-.968-2.614-.58-.746-1.45-1.213-2.418-1.493v8.074c.968-.187 1.741-.747 2.322-1.493.774-.607 1.064-1.54 1.064-2.474z" fill="#7A7A7A"/></svg>